<?xml version="1.0" encoding="UTF-8"?>
<svg width="60px" height="60px" viewBox="0 0 60 60" version="1.1" xmlns="http://www.w3.org/2000/svg" xmlns:xlink="http://www.w3.org/1999/xlink">
    <title>oil barrel 60x60</title>
    <g id="oil-barrel-60x60" stroke="none" stroke-width="1" fill="none" fill-rule="evenodd">
        <g id="crude-oil-barrel" transform="translate(10.000000, 0.000000)" fill="#FFFFFF" fill-rule="nonzero">
            <g id="Group" transform="translate(8.181818, 4.090909)">
                <path d="M3.11931818,2.42727273 C2.30454545,2.39318182 1.52727273,2.27045455 0.773863636,2.00113636 C0.395454545,1.86477273 -0.0136363636,1.67727273 0,1.21704545 C0.0136363636,0.763636364 0.436363636,0.572727273 0.807954545,0.45 C2.24318182,-0.0238636364 3.69886364,-0.0238636364 5.14090909,0.4125 C5.55681818,0.538636364 6.09545455,0.702272727 6.07159091,1.24772727 C6.04772727,1.76590909 5.54318182,1.95 5.10340909,2.05227273 C4.44545455,2.20568182 3.78068182,2.30454545 3.11931818,2.42727273 Z" id="Path"></path>
                <path d="M16.4011364,31.6636364 C16.3909091,34.3125 14.9590909,35.5738636 12.8215909,35.4647727 C10.7863636,35.3590909 9.54545455,33.9954545 9.70227273,32.0284091 C9.88636364,29.6829545 11.3829545,28.0022727 12.6477273,26.2022727 C12.8863636,25.8647727 13.1522727,25.7693182 13.4318182,26.1681818 C14.7681818,28.05 16.3465909,29.8125 16.4011364,31.6636364 Z" id="Path"></path>
            </g>
            <path d="M1.98068182,45.0477273 C-0.3,43.2204545 -0.388636364,42.6886364 1.39090909,40.3977273 C1.8,39.8693182 1.70795455,39.3340909 1.71136364,38.7886364 C1.725,33.2215909 1.69431818,27.6579545 1.74545455,22.0909091 C1.75227273,21.1909091 1.35340909,20.2193182 2.11704545,19.3534091 C2.49886364,18.9204545 1.86477273,18.7193182 1.60227273,18.4840909 C-0.255681818,16.8 -0.340909091,16.0806818 1.24431818,14.2670455 C1.62272727,13.8340909 1.725,13.4113636 1.72159091,12.8897727 C1.70795455,11.6420455 1.69431818,10.3909091 1.72840909,9.14318182 C1.74886364,8.42727273 1.56818182,7.89886364 1.03295455,7.34659091 C-0.296590909,5.97613636 -0.132954545,4.65340909 1.44204545,3.47386364 C3.31363636,2.07272727 5.54318182,1.51704545 7.77613636,1.13181818 C16.5886364,-0.388636364 25.4045455,-0.415909091 34.1829545,1.41818182 C35.9625,1.78977273 37.7079545,2.33522727 39.1943182,3.44659091 C40.7863636,4.63977273 40.9397727,5.76136364 39.6818182,7.3125 C39.3306818,7.74545455 39.1193182,8.14772727 39.1772727,8.68295455 C39.4261364,10.9636364 38.5806818,13.3193182 40.2886364,15.5079545 C41.2977273,16.8 39.7943182,17.8329545 38.8465909,18.7125 C34.4556818,20.8431818 29.7102273,21.3034091 24.9443182,21.5931818 C18.4568182,21.9852273 12.0034091,21.7397727 5.6625,20.1477273 C4.37727273,19.8238636 3.68863636,20.5568182 6.25909091,21.1227273 C13.8818182,22.8 21.5727273,22.9193182 29.2943182,22.0022727 C32.6181818,21.6068182 35.9522727,21.1806818 38.8840909,19.3329545 C39.4125,19.8511364 39.1602273,20.5159091 39.1636364,21.1056818 C39.1840909,27 39.1704545,32.8943182 39.1875,38.7886364 C39.1875,39.3886364 39.0715909,39.9818182 39.4875,40.575 C41.0045455,42.7227273 40.8511364,43.4795455 38.7443182,44.9693182 C38.5602273,45.0988636 38.3761364,45.2318182 38.1920455,45.3613636 C36.7909091,45.8079545 35.4170455,46.3636364 33.9852273,46.6772727 C28.0193182,47.9897727 21.9613636,48.2727273 15.8863636,47.8875 C11.1306818,47.5806818 6.37159091,47.1784091 1.98068182,45.0477273 Z M19.6056818,8.93181818 C25.8647727,8.93863636 31.3431818,8.59090909 36.6238636,6.79431818 C37.2511364,6.58295455 38.1409091,6.40909091 38.1784091,5.6625 C38.2261364,4.75909091 37.2477273,4.63636364 36.5931818,4.39431818 C33.5352273,3.2625 30.3340909,2.76477273 27.1056818,2.53636364 C19.6670455,2.01136364 12.2454545,1.9875 4.99090909,4.08068182 C4.04318182,4.35340909 2.54659091,4.5 2.52237473,5.53295455 C2.49545455,6.75681818 4.05681818,6.82840909 5.025,7.11477273 C10.0193182,8.61136364 15.1602273,8.96590909 19.6056818,8.93181818 Z M8.26363636,33.4159091 C8.26363636,30.5215909 8.1375,27.6204545 8.31136364,24.7363636 C8.42045455,22.9022727 7.89204545,22.0875 6.03068182,21.8727273 C4.93295455,21.7465909 4.66022727,21.9204545 4.66704545,23.0079545 C4.70454545,29.4204545 4.68409091,35.8295455 4.68409091,42.2420455 C4.68409091,42.4704545 4.63977273,42.7125 4.70795455,42.9204545 C5.16136364,44.3556818 6.50113636,44.1238636 7.53068182,44.25 C8.71363636,44.3965909 8.23295455,43.3125 8.23977273,42.7738636 C8.29431818,39.6579545 8.26704545,36.5352273 8.26363636,33.4159091 Z M21.1534091,41.6079545 C24.8215909,41.6420455 27.0681818,39.1159091 26.6079545,35.4647727 C26.3897727,33.7295455 25.5681818,32.2568182 24.5965909,30.8420455 C23.8295455,29.7272727 22.8613636,28.7215909 22.4625,27.3954545 C22.2579545,26.7102273 21.8727273,26.5465909 21.225,26.5499482 C20.5738636,26.5499482 20.2261364,26.7306818 20.0113636,27.4125 C19.6159091,28.6704545 18.7090909,29.6522727 17.9625,30.7159091 C17.0113636,32.0693182 16.2272727,33.4875 15.9068182,35.1443182 C15.2079545,38.7818182 17.4579545,41.5738636 21.1534091,41.6079545 Z M35.8022727,32.8193182 C35.8022727,36.1704545 35.7954545,39.5181818 35.8125,42.8693182 C35.8159091,43.2102273 35.6011364,43.7829545 36.1977273,43.8102273 C36.675,43.8340909 36.7875,43.3704545 36.7977273,42.9477273 C36.8011364,42.7772727 36.8045455,42.6068182 36.8045455,42.4363636 C36.8045455,35.9625 36.8113636,29.4920455 36.7875,23.0181818 C36.7875,22.6022727 37.0977273,21.8181818 36.3068182,21.8556818 C35.6181818,21.8897727 35.8056818,22.6329545 35.8056818,23.1068182 C35.7954545,26.3454545 35.8022727,29.5840909 35.8022727,32.8193182 Z M8.27045455,14.6590909 C8.27045455,14.2636364 8.22272727,13.8579545 8.28068182,13.4727273 C8.47840909,12.1261364 8.10340909,11.3011364 6.5625,11.3522727 C6.17727273,11.3659091 5.78522727,11.2125 5.4,11.1238636 C5.12386364,11.0590909 4.75227273,10.9636364 4.74545455,11.3522727 C4.725,13.1590909 4.74545455,14.9659091 4.80681818,16.7693182 C4.81363636,16.9465909 5.18522727,17.1545455 5.42386364,17.2772727 C7.53068182,18.3477273 8.27045455,17.8875 8.27045455,15.5113636 C8.27045455,15.225 8.27045455,14.9420455 8.27045455,14.6590909 Z M36.7943182,14.1340909 C36.7977273,14.1340909 36.8045455,14.1340909 36.8079545,14.1340909 C36.8079545,13.3977273 36.825,12.6579545 36.8011364,11.9215909 C36.7909091,11.6147727 36.9170455,11.1681818 36.4329545,11.1102273 C35.8840909,11.0454545 35.8056818,11.4579545 35.8056818,11.8909091 C35.8056818,13.4215909 35.7988636,14.9556818 35.8125,16.4863636 C35.8159091,16.8 35.7443182,17.2568182 36.2352273,17.2431818 C36.6068182,17.2329545 36.7909091,16.8920455 36.7943182,16.5136364 C36.7977273,15.7227273 36.7943182,14.9284091 36.7943182,14.1340909 Z" id="Shape"></path>
            <path d="M38.5602273,45.7056818 C39.3034091,45.6613636 39.1602273,46.2102273 39.1636364,46.6363636 C39.1772727,47.8295455 39.1909091,49.0227273 39.1636364,50.2159091 C39.1397727,51.1909091 39.2318182,52.0261364 39.9681818,52.8511364 C41.0011364,54.0034091 40.6806818,55.2409091 39.225,56.3147727 C37.2,57.8045455 34.8034091,58.3431818 32.3897727,58.7420455 C23.6215909,60.1840909 14.8704545,60.1840909 6.16022727,58.3022727 C4.54772727,57.9545455 2.97954545,57.4227273 1.6125,56.4579545 C-0.139772727,55.2238636 -0.334090909,53.8806818 1.11136364,52.3670455 C1.60909091,51.8454545 1.725,51.3477273 1.72159091,50.7034091 C1.71136364,49.0568182 1.73181818,47.4102273 1.73863636,45.7636364 C3.35113636,46.4556818 4.96022727,47.1340909 6.69204545,47.4988636 C14.2568182,49.0909091 21.8795455,49.0875 29.5125,48.2386364 C32.6420455,47.8840909 35.8159091,47.5125 38.5602273,45.7056818 Z M7.69431818,48.8352273 C5.39318182,47.7238636 4.67727273,48.1806818 4.68068182,50.6897727 C4.68068182,50.8602273 4.67727273,51.0272727 4.68068182,51.1977273 C4.70113636,52.7079545 5.72045455,53.6386364 7.45227273,53.5125 C8.19886364,53.4579545 7.92613636,52.3431818 7.95,51.2761364 C7.97386364,50.1715909 8.26704545,49.1113636 7.69431818,48.8352273 Z M36.2147727,52.9159091 C37.2136364,52.9534091 36.7943182,51.5488636 36.7738636,50.7920455 C36.7534091,49.9875 37.2511364,48.4977273 36.3715909,48.5079545 C35.8193182,48.5147727 35.8875,49.6159091 35.8636364,50.7136364 C35.8397727,51.8113636 35.7238636,52.8988636 36.2147727,52.9159091 Z" id="Shape"></path>
        </g>
    </g>
</svg>